<svg width="512" height="512" viewBox="0 0 512 512" fill="none" xmlns="http://www.w3.org/2000/svg">
  <defs>
    <linearGradient id="bgGrad" x1="64" y1="64" x2="448" y2="448" gradientUnits="userSpaceOnUse">
      <stop stop-color="#0B1220"/>
      <stop offset="0.5" stop-color="#1E1B4B"/>
      <stop offset="1" stop-color="#0E7490"/>
    </linearGradient>
    <linearGradient id="ringGrad" x1="96" y1="96" x2="416" y2="416" gradientUnits="userSpaceOnUse">
      <stop stop-color="#67E8F9"/>
      <stop offset="0.5" stop-color="#818CF8"/>
      <stop offset="1" stop-color="#22D3EE"/>
    </linearGradient>
    <linearGradient id="monoGrad" x1="170" y1="150" x2="356" y2="360" gradientUnits="userSpaceOnUse">
      <stop stop-color="#ECFEFF"/>
      <stop offset="0.5" stop-color="#C4B5FD"/>
      <stop offset="1" stop-color="#A5F3FC"/>
    </linearGradient>
    <filter id="glow" x="0" y="0" width="512" height="512" filterUnits="userSpaceOnUse">
      <feGaussianBlur stdDeviation="18" result="b"/>
      <feBlend in="SourceGraphic" in2="b" mode="screen"/>
    </filter>
  </defs>

  <circle cx="256" cy="256" r="224" fill="url(#bgGrad)"/>
  <circle cx="256" cy="256" r="190" stroke="url(#ringGrad)" stroke-width="14" opacity="0.95"/>
  <circle cx="256" cy="256" r="160" stroke="#67E8F9" stroke-opacity="0.15" stroke-width="2"/>

  <g filter="url(#glow)">
    <!-- P -->
    <path d="M164 350V162H248C300 162 332 192 332 242C332 293 300 322 248 322H212V350H164ZM212 283H246C278 283 294 272 294 242C294 214 278 201 246 201H212V283Z" fill="url(#monoGrad)"/>
    <!-- N -->
    <path d="M246 350V162H282L344 269V162H380V350H345L282 242V350H246Z" fill="url(#monoGrad)" fill-opacity="0.96"/>
  </g>
</svg>
